<?xml version="1.0" encoding="UTF-8" standalone="no"?>
<!DOCTYPE svg PUBLIC "-//W3C//DTD SVG 1.1//EN"
 "http://www.w3.org/Graphics/SVG/1.1/DTD/svg11.dtd">
<!-- Generated by graphviz version 10.0.1 (20240210.2158)
 -->
<!-- Pages: 1 -->
<svg width="832pt" height="280pt"
 viewBox="0.00 0.00 832.09 279.86" xmlns="http://www.w3.org/2000/svg" xmlns:xlink="http://www.w3.org/1999/xlink">
<g id="graph0" class="graph" transform="scale(1 1) rotate(0) translate(4 275.86)">
<polygon fill="white" stroke="none" points="-4,4 -4,-275.86 828.09,-275.86 828.09,4 -4,4"/>
<!-- 1 -->
<g id="node1" class="node">
<title>1</title>
<ellipse fill="none" stroke="black" cx="338.09" cy="-18" rx="27" ry="18"/>
<text text-anchor="middle" x="338.09" y="-12.57" font-family="Times New Roman,serif" font-size="14.00">15.4</text>
</g>
<!-- 2 -->
<g id="node2" class="node">
<title>2</title>
<ellipse fill="none" stroke="black" cx="338.09" cy="-90" rx="48.07" ry="18"/>
<text text-anchor="middle" x="338.09" y="-84.58" font-family="Times New Roman,serif" font-size="14.00">Expresion</text>
</g>
<!-- 2&#45;&#45;1 -->
<g id="edge1" class="edge">
<title>2&#45;&#45;1</title>
<path fill="none" stroke="black" d="M338.09,-71.7C338.09,-60.85 338.09,-46.92 338.09,-36.1"/>
</g>
<!-- 3 -->
<g id="node3" class="node">
<title>3</title>
<ellipse fill="none" stroke="black" cx="279.09" cy="-171.93" rx="41.01" ry="27.93"/>
<text text-anchor="middle" x="279.09" y="-174.38" font-family="Times New Roman,serif" font-size="14.00">Round </text>
<text text-anchor="middle" x="279.09" y="-158.63" font-family="Times New Roman,serif" font-size="14.00">15</text>
</g>
<!-- 3&#45;&#45;2 -->
<g id="edge4" class="edge">
<title>3&#45;&#45;2</title>
<path fill="none" stroke="black" d="M297.12,-146.51C306.47,-133.84 317.65,-118.7 325.96,-107.43"/>
</g>
<!-- 4 -->
<g id="node4" class="node">
<title>4</title>
<ellipse fill="none" stroke="black" cx="167.09" cy="-90" rx="32.6" ry="18"/>
<text text-anchor="middle" x="167.09" y="-84.58" font-family="Times New Roman,serif" font-size="14.00">round</text>
</g>
<!-- 3&#45;&#45;4 -->
<g id="edge2" class="edge">
<title>3&#45;&#45;4</title>
<path fill="none" stroke="black" d="M251.12,-150.97C230.91,-136.54 204.13,-117.43 186.29,-104.7"/>
</g>
<!-- 5 -->
<g id="node5" class="node">
<title>5</title>
<ellipse fill="none" stroke="black" cx="245.09" cy="-90" rx="27" ry="18"/>
<text text-anchor="middle" x="245.09" y="-84.58" font-family="Times New Roman,serif" font-size="14.00">(</text>
</g>
<!-- 3&#45;&#45;5 -->
<g id="edge3" class="edge">
<title>3&#45;&#45;5</title>
<path fill="none" stroke="black" d="M267.96,-144.76C262.77,-132.56 256.75,-118.4 252.19,-107.68"/>
</g>
<!-- 6 -->
<g id="node6" class="node">
<title>6</title>
<ellipse fill="none" stroke="black" cx="431.09" cy="-90" rx="27" ry="18"/>
<text text-anchor="middle" x="431.09" y="-84.58" font-family="Times New Roman,serif" font-size="14.00">)</text>
</g>
<!-- 3&#45;&#45;6 -->
<g id="edge5" class="edge">
<title>3&#45;&#45;6</title>
<path fill="none" stroke="black" d="M310.96,-154.17C340.9,-138.43 384.84,-115.32 410.45,-101.86"/>
</g>
<!-- 7 -->
<g id="node7" class="node">
<title>7</title>
<ellipse fill="none" stroke="black" cx="119.09" cy="-171.93" rx="29.11" ry="18"/>
<text text-anchor="middle" x="119.09" y="-166.51" font-family="Times New Roman,serif" font-size="14.00">valor</text>
</g>
<!-- 8 -->
<g id="node8" class="node">
<title>8</title>
<ellipse fill="none" stroke="black" cx="156.09" cy="-253.86" rx="52.06" ry="18"/>
<text text-anchor="middle" x="156.09" y="-248.44" font-family="Times New Roman,serif" font-size="14.00">Asignación</text>
</g>
<!-- 8&#45;&#45;3 -->
<g id="edge9" class="edge">
<title>8&#45;&#45;3</title>
<path fill="none" stroke="black" d="M179.81,-237.45C199.78,-224.48 228.41,-205.86 249.81,-191.96"/>
</g>
<!-- 8&#45;&#45;7 -->
<g id="edge7" class="edge">
<title>8&#45;&#45;7</title>
<path fill="none" stroke="black" d="M148.25,-235.91C141.93,-222.25 133.09,-203.16 126.8,-189.58"/>
</g>
<!-- 9 -->
<g id="node9" class="node">
<title>9</title>
<ellipse fill="none" stroke="black" cx="36.09" cy="-171.93" rx="36.09" ry="18"/>
<text text-anchor="middle" x="36.09" y="-166.51" font-family="Times New Roman,serif" font-size="14.00">double</text>
</g>
<!-- 8&#45;&#45;9 -->
<g id="edge6" class="edge">
<title>8&#45;&#45;9</title>
<path fill="none" stroke="black" d="M132.96,-237.45C111.03,-222.84 78.37,-201.09 57.15,-186.96"/>
</g>
<!-- 10 -->
<g id="node10" class="node">
<title>10</title>
<ellipse fill="none" stroke="black" cx="193.09" cy="-171.93" rx="27" ry="18"/>
<text text-anchor="middle" x="193.09" y="-166.51" font-family="Times New Roman,serif" font-size="14.00">=</text>
</g>
<!-- 8&#45;&#45;10 -->
<g id="edge8" class="edge">
<title>8&#45;&#45;10</title>
<path fill="none" stroke="black" d="M163.94,-235.91C170.26,-222.25 179.1,-203.16 185.39,-189.58"/>
</g>
<!-- 11 -->
<g id="node11" class="node">
<title>11</title>
<ellipse fill="none" stroke="black" cx="704.09" cy="-18" rx="27" ry="18"/>
<text text-anchor="middle" x="704.09" y="-12.57" font-family="Times New Roman,serif" font-size="14.00">9.9</text>
</g>
<!-- 12 -->
<g id="node12" class="node">
<title>12</title>
<ellipse fill="none" stroke="black" cx="704.09" cy="-90" rx="48.07" ry="18"/>
<text text-anchor="middle" x="704.09" y="-84.58" font-family="Times New Roman,serif" font-size="14.00">Expresion</text>
</g>
<!-- 12&#45;&#45;11 -->
<g id="edge10" class="edge">
<title>12&#45;&#45;11</title>
<path fill="none" stroke="black" d="M704.09,-71.7C704.09,-60.85 704.09,-46.92 704.09,-36.1"/>
</g>
<!-- 13 -->
<g id="node13" class="node">
<title>13</title>
<ellipse fill="none" stroke="black" cx="670.09" cy="-171.93" rx="41.01" ry="27.93"/>
<text text-anchor="middle" x="670.09" y="-174.38" font-family="Times New Roman,serif" font-size="14.00">Round </text>
<text text-anchor="middle" x="670.09" y="-158.63" font-family="Times New Roman,serif" font-size="14.00">10</text>
</g>
<!-- 13&#45;&#45;12 -->
<g id="edge13" class="edge">
<title>13&#45;&#45;12</title>
<path fill="none" stroke="black" d="M681.23,-144.76C686.34,-132.74 692.26,-118.82 696.79,-108.16"/>
</g>
<!-- 14 -->
<g id="node14" class="node">
<title>14</title>
<ellipse fill="none" stroke="black" cx="533.09" cy="-90" rx="32.6" ry="18"/>
<text text-anchor="middle" x="533.09" y="-84.58" font-family="Times New Roman,serif" font-size="14.00">round</text>
</g>
<!-- 13&#45;&#45;14 -->
<g id="edge11" class="edge">
<title>13&#45;&#45;14</title>
<path fill="none" stroke="black" d="M639.35,-152.99C613.63,-137.99 577.59,-116.96 554.79,-103.66"/>
</g>
<!-- 15 -->
<g id="node15" class="node">
<title>15</title>
<ellipse fill="none" stroke="black" cx="611.09" cy="-90" rx="27" ry="18"/>
<text text-anchor="middle" x="611.09" y="-84.58" font-family="Times New Roman,serif" font-size="14.00">(</text>
</g>
<!-- 13&#45;&#45;15 -->
<g id="edge12" class="edge">
<title>13&#45;&#45;15</title>
<path fill="none" stroke="black" d="M652.07,-146.51C642.45,-133.48 630.89,-117.82 622.51,-106.46"/>
</g>
<!-- 16 -->
<g id="node16" class="node">
<title>16</title>
<ellipse fill="none" stroke="black" cx="797.09" cy="-90" rx="27" ry="18"/>
<text text-anchor="middle" x="797.09" y="-84.58" font-family="Times New Roman,serif" font-size="14.00">)</text>
</g>
<!-- 13&#45;&#45;16 -->
<g id="edge14" class="edge">
<title>13&#45;&#45;16</title>
<path fill="none" stroke="black" d="M699.87,-152.19C724.06,-136.96 757.46,-115.95 778.14,-102.93"/>
</g>
<!-- 17 -->
<g id="node17" class="node">
<title>17</title>
<ellipse fill="none" stroke="black" cx="505.09" cy="-171.93" rx="33.6" ry="18"/>
<text text-anchor="middle" x="505.09" y="-166.51" font-family="Times New Roman,serif" font-size="14.00">valor2</text>
</g>
<!-- 18 -->
<g id="node18" class="node">
<title>18</title>
<ellipse fill="none" stroke="black" cx="544.09" cy="-253.86" rx="52.06" ry="18"/>
<text text-anchor="middle" x="544.09" y="-248.44" font-family="Times New Roman,serif" font-size="14.00">Asignación</text>
</g>
<!-- 18&#45;&#45;13 -->
<g id="edge18" class="edge">
<title>18&#45;&#45;13</title>
<path fill="none" stroke="black" d="M568.09,-237.64C588.65,-224.59 618.36,-205.75 640.41,-191.76"/>
</g>
<!-- 18&#45;&#45;17 -->
<g id="edge16" class="edge">
<title>18&#45;&#45;17</title>
<path fill="none" stroke="black" d="M535.82,-235.91C529.2,-222.35 519.97,-203.42 513.35,-189.86"/>
</g>
<!-- 19 -->
<g id="node19" class="node">
<title>19</title>
<ellipse fill="none" stroke="black" cx="417.09" cy="-171.93" rx="36.09" ry="18"/>
<text text-anchor="middle" x="417.09" y="-166.51" font-family="Times New Roman,serif" font-size="14.00">double</text>
</g>
<!-- 18&#45;&#45;19 -->
<g id="edge15" class="edge">
<title>18&#45;&#45;19</title>
<path fill="none" stroke="black" d="M519.91,-237.64C496.45,-222.87 461.18,-200.68 438.65,-186.5"/>
</g>
<!-- 20 -->
<g id="node20" class="node">
<title>20</title>
<ellipse fill="none" stroke="black" cx="584.09" cy="-171.93" rx="27" ry="18"/>
<text text-anchor="middle" x="584.09" y="-166.51" font-family="Times New Roman,serif" font-size="14.00">=</text>
</g>
<!-- 18&#45;&#45;20 -->
<g id="edge17" class="edge">
<title>18&#45;&#45;20</title>
<path fill="none" stroke="black" d="M552.58,-235.91C559.46,-222.16 569.09,-202.9 575.9,-189.31"/>
</g>
</g>
</svg>
