<?xml version="1.0" encoding="UTF-8" standalone="no"?>
<!DOCTYPE svg PUBLIC "-//W3C//DTD SVG 1.1//EN"
 "http://www.w3.org/Graphics/SVG/1.1/DTD/svg11.dtd">
<!-- Generated by graphviz version 10.0.1 (20240210.2158)
 -->
<!-- Pages: 1 -->
<svg width="320pt" height="188pt"
 viewBox="0.00 0.00 320.07 188.00" xmlns="http://www.w3.org/2000/svg" xmlns:xlink="http://www.w3.org/1999/xlink">
<g id="graph0" class="graph" transform="scale(1 1) rotate(0) translate(4 184)">
<polygon fill="white" stroke="none" points="-4,4 -4,-184 316.07,-184 316.07,4 -4,4"/>
<!-- 1 -->
<g id="node1" class="node">
<title>1</title>
<ellipse fill="none" stroke="black" cx="264" cy="-18" rx="27" ry="18"/>
<text text-anchor="middle" x="264" y="-12.57" font-family="Times New Roman,serif" font-size="14.00">0</text>
</g>
<!-- 2 -->
<g id="node2" class="node">
<title>2</title>
<ellipse fill="none" stroke="black" cx="264" cy="-90" rx="48.07" ry="18"/>
<text text-anchor="middle" x="264" y="-84.58" font-family="Times New Roman,serif" font-size="14.00">Expresion</text>
</g>
<!-- 2&#45;&#45;1 -->
<g id="edge1" class="edge">
<title>2&#45;&#45;1</title>
<path fill="none" stroke="black" d="M264,-71.7C264,-60.85 264,-46.92 264,-36.1"/>
</g>
<!-- 3 -->
<g id="node3" class="node">
<title>3</title>
<ellipse fill="none" stroke="black" cx="99" cy="-90" rx="27" ry="18"/>
<text text-anchor="middle" x="99" y="-84.58" font-family="Times New Roman,serif" font-size="14.00">var1</text>
</g>
<!-- 4 -->
<g id="node4" class="node">
<title>4</title>
<ellipse fill="none" stroke="black" cx="135" cy="-162" rx="52.06" ry="18"/>
<text text-anchor="middle" x="135" y="-156.57" font-family="Times New Roman,serif" font-size="14.00">Asignación</text>
</g>
<!-- 4&#45;&#45;2 -->
<g id="edge5" class="edge">
<title>4&#45;&#45;2</title>
<path fill="none" stroke="black" d="M162.04,-146.33C184.21,-134.3 215.4,-117.37 237.43,-105.42"/>
</g>
<!-- 4&#45;&#45;3 -->
<g id="edge3" class="edge">
<title>4&#45;&#45;3</title>
<path fill="none" stroke="black" d="M126.29,-144.05C120.54,-132.89 113.06,-118.34 107.39,-107.31"/>
</g>
<!-- 5 -->
<g id="node5" class="node">
<title>5</title>
<ellipse fill="none" stroke="black" cx="27" cy="-90" rx="27" ry="18"/>
<text text-anchor="middle" x="27" y="-84.58" font-family="Times New Roman,serif" font-size="14.00">int</text>
</g>
<!-- 4&#45;&#45;5 -->
<g id="edge2" class="edge">
<title>4&#45;&#45;5</title>
<path fill="none" stroke="black" d="M111.3,-145.64C91.68,-132.92 64.17,-115.09 45.98,-103.3"/>
</g>
<!-- 6 -->
<g id="node6" class="node">
<title>6</title>
<ellipse fill="none" stroke="black" cx="171" cy="-90" rx="27" ry="18"/>
<text text-anchor="middle" x="171" y="-84.58" font-family="Times New Roman,serif" font-size="14.00">=</text>
</g>
<!-- 4&#45;&#45;6 -->
<g id="edge4" class="edge">
<title>4&#45;&#45;6</title>
<path fill="none" stroke="black" d="M143.71,-144.05C149.46,-132.89 156.94,-118.34 162.61,-107.31"/>
</g>
</g>
</svg>
