<?xml version="1.0" encoding="UTF-8" standalone="no"?>
<!DOCTYPE svg PUBLIC "-//W3C//DTD SVG 1.1//EN"
 "http://www.w3.org/Graphics/SVG/1.1/DTD/svg11.dtd">
<!-- Generated by graphviz version 10.0.1 (20240210.2158)
 -->
<!-- Pages: 1 -->
<svg width="414pt" height="260pt"
 viewBox="0.00 0.00 413.57 260.00" xmlns="http://www.w3.org/2000/svg" xmlns:xlink="http://www.w3.org/1999/xlink">
<g id="graph0" class="graph" transform="scale(1 1) rotate(0) translate(4 256)">
<polygon fill="white" stroke="none" points="-4,4 -4,-256 409.57,-256 409.57,4 -4,4"/>
<!-- 1 -->
<g id="node1" class="node">
<title>1</title>
<ellipse fill="none" stroke="black" cx="175" cy="-18" rx="27" ry="18"/>
<text text-anchor="middle" x="175" y="-12.57" font-family="Times New Roman,serif" font-size="14.00">6</text>
</g>
<!-- 2 -->
<g id="node2" class="node">
<title>2</title>
<ellipse fill="none" stroke="black" cx="175" cy="-90" rx="46.57" ry="18"/>
<text text-anchor="middle" x="175" y="-84.58" font-family="Times New Roman,serif" font-size="14.00">expresion</text>
</g>
<!-- 2&#45;&#45;1 -->
<g id="edge1" class="edge">
<title>2&#45;&#45;1</title>
<path fill="none" stroke="black" d="M175,-71.7C175,-60.85 175,-46.92 175,-36.1"/>
</g>
<!-- 3 -->
<g id="node3" class="node">
<title>3</title>
<ellipse fill="none" stroke="black" cx="359" cy="-18" rx="27" ry="18"/>
<text text-anchor="middle" x="359" y="-12.57" font-family="Times New Roman,serif" font-size="14.00">2</text>
</g>
<!-- 4 -->
<g id="node4" class="node">
<title>4</title>
<ellipse fill="none" stroke="black" cx="359" cy="-90" rx="46.57" ry="18"/>
<text text-anchor="middle" x="359" y="-84.58" font-family="Times New Roman,serif" font-size="14.00">expresion</text>
</g>
<!-- 4&#45;&#45;3 -->
<g id="edge2" class="edge">
<title>4&#45;&#45;3</title>
<path fill="none" stroke="black" d="M359,-71.7C359,-60.85 359,-46.92 359,-36.1"/>
</g>
<!-- 5 -->
<g id="node5" class="node">
<title>5</title>
<ellipse fill="none" stroke="black" cx="267" cy="-90" rx="27" ry="18"/>
<text text-anchor="middle" x="267" y="-84.58" font-family="Times New Roman,serif" font-size="14.00">*</text>
</g>
<!-- 6 -->
<g id="node6" class="node">
<title>6</title>
<ellipse fill="none" stroke="black" cx="267" cy="-162" rx="46.57" ry="18"/>
<text text-anchor="middle" x="267" y="-156.57" font-family="Times New Roman,serif" font-size="14.00">expresion</text>
</g>
<!-- 6&#45;&#45;2 -->
<g id="edge3" class="edge">
<title>6&#45;&#45;2</title>
<path fill="none" stroke="black" d="M246.58,-145.46C231.34,-133.86 210.59,-118.08 195.36,-106.49"/>
</g>
<!-- 6&#45;&#45;4 -->
<g id="edge5" class="edge">
<title>6&#45;&#45;4</title>
<path fill="none" stroke="black" d="M287.42,-145.46C302.66,-133.86 323.41,-118.08 338.64,-106.49"/>
</g>
<!-- 6&#45;&#45;5 -->
<g id="edge4" class="edge">
<title>6&#45;&#45;5</title>
<path fill="none" stroke="black" d="M267,-143.7C267,-132.85 267,-118.92 267,-108.1"/>
</g>
<!-- 7 -->
<g id="node7" class="node">
<title>7</title>
<ellipse fill="none" stroke="black" cx="101" cy="-162" rx="29.11" ry="18"/>
<text text-anchor="middle" x="101" y="-156.57" font-family="Times New Roman,serif" font-size="14.00">valor</text>
</g>
<!-- 8 -->
<g id="node8" class="node">
<title>8</title>
<ellipse fill="none" stroke="black" cx="138" cy="-234" rx="52.06" ry="18"/>
<text text-anchor="middle" x="138" y="-228.57" font-family="Times New Roman,serif" font-size="14.00">Asignación</text>
</g>
<!-- 8&#45;&#45;6 -->
<g id="edge9" class="edge">
<title>8&#45;&#45;6</title>
<path fill="none" stroke="black" d="M165.04,-218.33C187.35,-206.22 218.82,-189.15 240.87,-177.18"/>
</g>
<!-- 8&#45;&#45;7 -->
<g id="edge7" class="edge">
<title>8&#45;&#45;7</title>
<path fill="none" stroke="black" d="M129.04,-216.05C123.14,-204.89 115.45,-190.34 109.62,-179.31"/>
</g>
<!-- int -->
<g id="node9" class="node">
<title>int</title>
<ellipse fill="none" stroke="black" cx="27" cy="-162" rx="27" ry="18"/>
<text text-anchor="middle" x="27" y="-156.57" font-family="Times New Roman,serif" font-size="14.00">int</text>
</g>
<!-- 8&#45;&#45;int -->
<g id="edge6" class="edge">
<title>8&#45;&#45;int</title>
<path fill="none" stroke="black" d="M113.64,-217.64C93.35,-204.84 64.84,-186.86 46.15,-175.08"/>
</g>
<!-- = -->
<g id="node10" class="node">
<title>=</title>
<ellipse fill="none" stroke="black" cx="175" cy="-162" rx="27" ry="18"/>
<text text-anchor="middle" x="175" y="-156.57" font-family="Times New Roman,serif" font-size="14.00">=</text>
</g>
<!-- 8&#45;&#45;= -->
<g id="edge8" class="edge">
<title>8&#45;&#45;=</title>
<path fill="none" stroke="black" d="M146.96,-216.05C152.86,-204.89 160.55,-190.34 166.38,-179.31"/>
</g>
</g>
</svg>
