<?xml version="1.0" encoding="UTF-8" standalone="no"?>
<!DOCTYPE svg PUBLIC "-//W3C//DTD SVG 1.1//EN"
 "http://www.w3.org/Graphics/SVG/1.1/DTD/svg11.dtd">
<!-- Generated by graphviz version 10.0.1 (20240210.2158)
 -->
<!-- Pages: 1 -->
<svg width="475pt" height="260pt"
 viewBox="0.00 0.00 475.15 260.00" xmlns="http://www.w3.org/2000/svg" xmlns:xlink="http://www.w3.org/1999/xlink">
<g id="graph0" class="graph" transform="scale(1 1) rotate(0) translate(4 256)">
<polygon fill="white" stroke="none" points="-4,4 -4,-256 471.15,-256 471.15,4 -4,4"/>
<!-- 1 -->
<g id="node1" class="node">
<title>1</title>
<ellipse fill="none" stroke="black" cx="233.08" cy="-18" rx="27" ry="18"/>
<text text-anchor="middle" x="233.08" y="-12.57" font-family="Times New Roman,serif" font-size="14.00">true</text>
</g>
<!-- 2 -->
<g id="node2" class="node">
<title>2</title>
<ellipse fill="none" stroke="black" cx="233.08" cy="-90" rx="48.07" ry="18"/>
<text text-anchor="middle" x="233.08" y="-84.58" font-family="Times New Roman,serif" font-size="14.00">Expresion</text>
</g>
<!-- 2&#45;&#45;1 -->
<g id="edge1" class="edge">
<title>2&#45;&#45;1</title>
<path fill="none" stroke="black" d="M233.08,-71.7C233.08,-60.85 233.08,-46.92 233.08,-36.1"/>
</g>
<!-- 3 -->
<g id="node3" class="node">
<title>3</title>
<ellipse fill="none" stroke="black" cx="419.08" cy="-18" rx="27.61" ry="18"/>
<text text-anchor="middle" x="419.08" y="-12.57" font-family="Times New Roman,serif" font-size="14.00">false</text>
</g>
<!-- 4 -->
<g id="node4" class="node">
<title>4</title>
<ellipse fill="none" stroke="black" cx="419.08" cy="-90" rx="48.07" ry="18"/>
<text text-anchor="middle" x="419.08" y="-84.58" font-family="Times New Roman,serif" font-size="14.00">Expresion</text>
</g>
<!-- 4&#45;&#45;3 -->
<g id="edge2" class="edge">
<title>4&#45;&#45;3</title>
<path fill="none" stroke="black" d="M419.08,-71.7C419.08,-60.85 419.08,-46.92 419.08,-36.1"/>
</g>
<!-- 5 -->
<g id="node5" class="node">
<title>5</title>
<ellipse fill="none" stroke="black" cx="326.08" cy="-90" rx="27" ry="18"/>
<text text-anchor="middle" x="326.08" y="-84.58" font-family="Times New Roman,serif" font-size="14.00">!=</text>
</g>
<!-- 6 -->
<g id="node6" class="node">
<title>6</title>
<ellipse fill="none" stroke="black" cx="326.08" cy="-162" rx="48.07" ry="18"/>
<text text-anchor="middle" x="326.08" y="-156.57" font-family="Times New Roman,serif" font-size="14.00">Expresion</text>
</g>
<!-- 6&#45;&#45;2 -->
<g id="edge3" class="edge">
<title>6&#45;&#45;2</title>
<path fill="none" stroke="black" d="M305.44,-145.46C290.02,-133.86 269.06,-118.08 253.66,-106.49"/>
</g>
<!-- 6&#45;&#45;4 -->
<g id="edge5" class="edge">
<title>6&#45;&#45;4</title>
<path fill="none" stroke="black" d="M346.72,-145.46C362.13,-133.86 383.1,-118.08 398.49,-106.49"/>
</g>
<!-- 6&#45;&#45;5 -->
<g id="edge4" class="edge">
<title>6&#45;&#45;5</title>
<path fill="none" stroke="black" d="M326.08,-143.7C326.08,-132.85 326.08,-118.92 326.08,-108.1"/>
</g>
<!-- 7 -->
<g id="node7" class="node">
<title>7</title>
<ellipse fill="none" stroke="black" cx="148.08" cy="-162" rx="40.09" ry="18"/>
<text text-anchor="middle" x="148.08" y="-156.57" font-family="Times New Roman,serif" font-size="14.00">bandera</text>
</g>
<!-- 8 -->
<g id="node8" class="node">
<title>8</title>
<ellipse fill="none" stroke="black" cx="190.08" cy="-234" rx="52.06" ry="18"/>
<text text-anchor="middle" x="190.08" y="-228.57" font-family="Times New Roman,serif" font-size="14.00">Asignación</text>
</g>
<!-- 8&#45;&#45;6 -->
<g id="edge9" class="edge">
<title>8&#45;&#45;6</title>
<path fill="none" stroke="black" d="M218.26,-218.5C241.91,-206.32 275.48,-189.04 298.86,-177.01"/>
</g>
<!-- 8&#45;&#45;7 -->
<g id="edge7" class="edge">
<title>8&#45;&#45;7</title>
<path fill="none" stroke="black" d="M179.91,-216.05C173.31,-205.05 164.73,-190.76 158.15,-179.79"/>
</g>
<!-- booleano -->
<g id="node9" class="node">
<title>booleano</title>
<ellipse fill="none" stroke="black" cx="45.08" cy="-162" rx="45.08" ry="18"/>
<text text-anchor="middle" x="45.08" y="-156.57" font-family="Times New Roman,serif" font-size="14.00">booleano</text>
</g>
<!-- 8&#45;&#45;booleano -->
<g id="edge6" class="edge">
<title>8&#45;&#45;booleano</title>
<path fill="none" stroke="black" d="M160.73,-218.83C135.08,-206.45 98.09,-188.59 72.9,-176.43"/>
</g>
<!-- = -->
<g id="node10" class="node">
<title>=</title>
<ellipse fill="none" stroke="black" cx="233.08" cy="-162" rx="27" ry="18"/>
<text text-anchor="middle" x="233.08" y="-156.57" font-family="Times New Roman,serif" font-size="14.00">=</text>
</g>
<!-- 8&#45;&#45;= -->
<g id="edge8" class="edge">
<title>8&#45;&#45;=</title>
<path fill="none" stroke="black" d="M200.49,-216.05C207.44,-204.73 216.54,-189.92 223.35,-178.83"/>
</g>
</g>
</svg>
