<?xml version="1.0" encoding="UTF-8" standalone="no"?>
<!DOCTYPE svg PUBLIC "-//W3C//DTD SVG 1.1//EN"
 "http://www.w3.org/Graphics/SVG/1.1/DTD/svg11.dtd">
<!-- Generated by graphviz version 10.0.1 (20240210.2158)
 -->
<!-- Pages: 1 -->
<svg width="1148pt" height="260pt"
 viewBox="0.00 0.00 1148.00 260.00" xmlns="http://www.w3.org/2000/svg" xmlns:xlink="http://www.w3.org/1999/xlink">
<g id="graph0" class="graph" transform="scale(1 1) rotate(0) translate(4 256)">
<polygon fill="white" stroke="none" points="-4,4 -4,-256 1144,-256 1144,4 -4,4"/>
<!-- 1 -->
<g id="node1" class="node">
<title>1</title>
<ellipse fill="none" stroke="black" cx="264" cy="-90" rx="27" ry="18"/>
<text text-anchor="middle" x="264" y="-84.58" font-family="Times New Roman,serif" font-size="14.00">0</text>
</g>
<!-- 2 -->
<g id="node2" class="node">
<title>2</title>
<ellipse fill="none" stroke="black" cx="264" cy="-162" rx="48.07" ry="18"/>
<text text-anchor="middle" x="264" y="-156.57" font-family="Times New Roman,serif" font-size="14.00">Expresion</text>
</g>
<!-- 2&#45;&#45;1 -->
<g id="edge1" class="edge">
<title>2&#45;&#45;1</title>
<path fill="none" stroke="black" d="M264,-143.7C264,-132.85 264,-118.92 264,-108.1"/>
</g>
<!-- 3 -->
<g id="node3" class="node">
<title>3</title>
<ellipse fill="none" stroke="black" cx="99" cy="-162" rx="27" ry="18"/>
<text text-anchor="middle" x="99" y="-156.57" font-family="Times New Roman,serif" font-size="14.00">var1</text>
</g>
<!-- 4 -->
<g id="node4" class="node">
<title>4</title>
<ellipse fill="none" stroke="black" cx="135" cy="-234" rx="52.06" ry="18"/>
<text text-anchor="middle" x="135" y="-228.57" font-family="Times New Roman,serif" font-size="14.00">Asignación</text>
</g>
<!-- 4&#45;&#45;2 -->
<g id="edge5" class="edge">
<title>4&#45;&#45;2</title>
<path fill="none" stroke="black" d="M162.04,-218.33C184.21,-206.3 215.4,-189.37 237.43,-177.42"/>
</g>
<!-- 4&#45;&#45;3 -->
<g id="edge3" class="edge">
<title>4&#45;&#45;3</title>
<path fill="none" stroke="black" d="M126.29,-216.05C120.54,-204.89 113.06,-190.34 107.39,-179.31"/>
</g>
<!-- 5 -->
<g id="node5" class="node">
<title>5</title>
<ellipse fill="none" stroke="black" cx="27" cy="-162" rx="27" ry="18"/>
<text text-anchor="middle" x="27" y="-156.57" font-family="Times New Roman,serif" font-size="14.00">int</text>
</g>
<!-- 4&#45;&#45;5 -->
<g id="edge2" class="edge">
<title>4&#45;&#45;5</title>
<path fill="none" stroke="black" d="M111.3,-217.64C91.68,-204.92 64.17,-187.09 45.98,-175.3"/>
</g>
<!-- 6 -->
<g id="node6" class="node">
<title>6</title>
<ellipse fill="none" stroke="black" cx="171" cy="-162" rx="27" ry="18"/>
<text text-anchor="middle" x="171" y="-156.57" font-family="Times New Roman,serif" font-size="14.00">=</text>
</g>
<!-- 4&#45;&#45;6 -->
<g id="edge4" class="edge">
<title>4&#45;&#45;6</title>
<path fill="none" stroke="black" d="M143.71,-216.05C149.46,-204.89 156.94,-190.34 162.61,-179.31"/>
</g>
<!-- 7 -->
<g id="node7" class="node">
<title>7</title>
<ellipse fill="none" stroke="black" cx="522" cy="-90" rx="59.05" ry="18"/>
<text text-anchor="middle" x="522" y="-84.58" font-family="Times New Roman,serif" font-size="14.00">Otro metodo</text>
</g>
<!-- 8 -->
<g id="node8" class="node">
<title>8</title>
<ellipse fill="none" stroke="black" cx="522" cy="-162" rx="48.07" ry="18"/>
<text text-anchor="middle" x="522" y="-156.57" font-family="Times New Roman,serif" font-size="14.00">Expresion</text>
</g>
<!-- 8&#45;&#45;7 -->
<g id="edge6" class="edge">
<title>8&#45;&#45;7</title>
<path fill="none" stroke="black" d="M522,-143.7C522,-132.85 522,-118.92 522,-108.1"/>
</g>
<!-- 9 -->
<g id="node9" class="node">
<title>9</title>
<ellipse fill="none" stroke="black" cx="357" cy="-162" rx="27.11" ry="18"/>
<text text-anchor="middle" x="357" y="-156.57" font-family="Times New Roman,serif" font-size="14.00">cout</text>
</g>
<!-- 11 -->
<g id="node10" class="node">
<title>11</title>
<ellipse fill="none" stroke="black" cx="522" cy="-234" rx="29.11" ry="18"/>
<text text-anchor="middle" x="522" y="-228.57" font-family="Times New Roman,serif" font-size="14.00">Cout</text>
</g>
<!-- 11&#45;&#45;8 -->
<g id="edge9" class="edge">
<title>11&#45;&#45;8</title>
<path fill="none" stroke="black" d="M522,-215.7C522,-204.85 522,-190.92 522,-180.1"/>
</g>
<!-- 11&#45;&#45;9 -->
<g id="edge7" class="edge">
<title>11&#45;&#45;9</title>
<path fill="none" stroke="black" d="M498.07,-223.6C472.05,-213.27 429.33,-196.03 393,-180 388.32,-177.94 383.34,-175.64 378.62,-173.43"/>
</g>
<!-- 10 -->
<g id="node11" class="node">
<title>10</title>
<ellipse fill="none" stroke="black" cx="429" cy="-162" rx="27" ry="18"/>
<text text-anchor="middle" x="429" y="-156.57" font-family="Times New Roman,serif" font-size="14.00">&lt;&lt;</text>
</g>
<!-- 11&#45;&#45;10 -->
<g id="edge8" class="edge">
<title>11&#45;&#45;10</title>
<path fill="none" stroke="black" d="M504.07,-219.5C487.49,-207.03 463.02,-188.6 446.56,-176.22"/>
</g>
<!-- 12 -->
<g id="node12" class="node">
<title>12</title>
<ellipse fill="none" stroke="black" cx="615" cy="-162" rx="27" ry="18"/>
<text text-anchor="middle" x="615" y="-156.57" font-family="Times New Roman,serif" font-size="14.00">&lt;&lt;</text>
</g>
<!-- 11&#45;&#45;12 -->
<g id="edge10" class="edge">
<title>11&#45;&#45;12</title>
<path fill="none" stroke="black" d="M539.93,-219.5C556.51,-207.03 580.98,-188.6 597.44,-176.22"/>
</g>
<!-- 13 -->
<g id="node13" class="node">
<title>13</title>
<ellipse fill="none" stroke="black" cx="687" cy="-162" rx="27" ry="18"/>
<text text-anchor="middle" x="687" y="-156.57" font-family="Times New Roman,serif" font-size="14.00">endl</text>
</g>
<!-- 11&#45;&#45;13 -->
<g id="edge11" class="edge">
<title>11&#45;&#45;13</title>
<path fill="none" stroke="black" d="M545.93,-223.6C571.95,-213.27 614.67,-196.03 651,-180 655.68,-177.94 660.66,-175.64 665.38,-173.43"/>
</g>
<!-- 14 -->
<g id="node14" class="node">
<title>14</title>
<ellipse fill="none" stroke="black" cx="924" cy="-18" rx="27" ry="18"/>
<text text-anchor="middle" x="924" y="-12.57" font-family="Times New Roman,serif" font-size="14.00">0</text>
</g>
<!-- 16 -->
<g id="node15" class="node">
<title>16</title>
<ellipse fill="none" stroke="black" cx="924" cy="-90" rx="27" ry="18"/>
<text text-anchor="middle" x="924" y="-84.58" font-family="Times New Roman,serif" font-size="14.00">var1</text>
</g>
<!-- 16&#45;&#45;14 -->
<g id="edge13" class="edge">
<title>16&#45;&#45;14</title>
<path fill="none" stroke="black" d="M924,-71.7C924,-60.85 924,-46.92 924,-36.1"/>
</g>
<!-- 15 -->
<g id="node16" class="node">
<title>15</title>
<ellipse fill="none" stroke="black" cx="924" cy="-162" rx="48.07" ry="18"/>
<text text-anchor="middle" x="924" y="-156.57" font-family="Times New Roman,serif" font-size="14.00">Expresion</text>
</g>
<!-- 15&#45;&#45;16 -->
<g id="edge12" class="edge">
<title>15&#45;&#45;16</title>
<path fill="none" stroke="black" d="M924,-143.7C924,-132.85 924,-118.92 924,-108.1"/>
</g>
<!-- 17 -->
<g id="node17" class="node">
<title>17</title>
<ellipse fill="none" stroke="black" cx="759" cy="-162" rx="27.11" ry="18"/>
<text text-anchor="middle" x="759" y="-156.57" font-family="Times New Roman,serif" font-size="14.00">cout</text>
</g>
<!-- 19 -->
<g id="node18" class="node">
<title>19</title>
<ellipse fill="none" stroke="black" cx="831" cy="-234" rx="29.11" ry="18"/>
<text text-anchor="middle" x="831" y="-228.57" font-family="Times New Roman,serif" font-size="14.00">Cout</text>
</g>
<!-- 19&#45;&#45;15 -->
<g id="edge16" class="edge">
<title>19&#45;&#45;15</title>
<path fill="none" stroke="black" d="M848.93,-219.5C864.45,-207.82 886.9,-190.93 903.2,-178.65"/>
</g>
<!-- 19&#45;&#45;17 -->
<g id="edge14" class="edge">
<title>19&#45;&#45;17</title>
<path fill="none" stroke="black" d="M815.73,-218.15C803.35,-206.12 786,-189.25 773.75,-177.35"/>
</g>
<!-- 18 -->
<g id="node19" class="node">
<title>18</title>
<ellipse fill="none" stroke="black" cx="831" cy="-162" rx="27" ry="18"/>
<text text-anchor="middle" x="831" y="-156.57" font-family="Times New Roman,serif" font-size="14.00">&lt;&lt;</text>
</g>
<!-- 19&#45;&#45;18 -->
<g id="edge15" class="edge">
<title>19&#45;&#45;18</title>
<path fill="none" stroke="black" d="M831,-215.7C831,-204.85 831,-190.92 831,-180.1"/>
</g>
<!-- 20 -->
<g id="node20" class="node">
<title>20</title>
<ellipse fill="none" stroke="black" cx="1029" cy="-162" rx="38.59" ry="18"/>
<text text-anchor="middle" x="1029" y="-156.57" font-family="Times New Roman,serif" font-size="14.00">execute</text>
</g>
<!-- 21 -->
<g id="node21" class="node">
<title>21</title>
<ellipse fill="none" stroke="black" cx="1071" cy="-234" rx="40.09" ry="18"/>
<text text-anchor="middle" x="1071" y="-228.57" font-family="Times New Roman,serif" font-size="14.00">Execute</text>
</g>
<!-- 21&#45;&#45;20 -->
<g id="edge17" class="edge">
<title>21&#45;&#45;20</title>
<path fill="none" stroke="black" d="M1061.05,-216.41C1054.35,-205.25 1045.56,-190.6 1038.88,-179.47"/>
</g>
<!-- &#45;1 -->
<g id="node22" class="node">
<title>&#45;1</title>
<ellipse fill="none" stroke="black" cx="1113" cy="-162" rx="27" ry="18"/>
<text text-anchor="middle" x="1113" y="-156.57" font-family="Times New Roman,serif" font-size="14.00">&#45;1</text>
</g>
<!-- 21&#45;&#45;&#45;1 -->
<g id="edge18" class="edge">
<title>21&#45;&#45;&#45;1</title>
<path fill="none" stroke="black" d="M1080.95,-216.41C1087.75,-205.09 1096.69,-190.18 1103.41,-178.99"/>
</g>
</g>
</svg>
