<?xml version="1.0" encoding="UTF-8" standalone="no"?>
<!DOCTYPE svg PUBLIC "-//W3C//DTD SVG 1.1//EN"
 "http://www.w3.org/Graphics/SVG/1.1/DTD/svg11.dtd">
<!-- Generated by graphviz version 10.0.1 (20240210.2158)
 -->
<!-- Pages: 1 -->
<svg width="472pt" height="424pt"
 viewBox="0.00 0.00 472.17 423.86" xmlns="http://www.w3.org/2000/svg" xmlns:xlink="http://www.w3.org/1999/xlink">
<g id="graph0" class="graph" transform="scale(1 1) rotate(0) translate(4 419.86)">
<polygon fill="white" stroke="none" points="-4,4 -4,-419.86 468.17,-419.86 468.17,4 -4,4"/>
<!-- 11 -->
<g id="node1" class="node">
<title>11</title>
<ellipse fill="none" stroke="black" cx="137.1" cy="-18" rx="27" ry="18"/>
<text text-anchor="middle" x="137.1" y="-12.57" font-family="Times New Roman,serif" font-size="14.00">1</text>
</g>
<!-- 12 -->
<g id="node2" class="node">
<title>12</title>
<ellipse fill="none" stroke="black" cx="137.1" cy="-90" rx="48.07" ry="18"/>
<text text-anchor="middle" x="137.1" y="-84.58" font-family="Times New Roman,serif" font-size="14.00">Expresion</text>
</g>
<!-- 12&#45;&#45;11 -->
<g id="edge1" class="edge">
<title>12&#45;&#45;11</title>
<path fill="none" stroke="black" d="M137.1,-71.7C137.1,-60.85 137.1,-46.92 137.1,-36.1"/>
</g>
<!-- 13 -->
<g id="node3" class="node">
<title>13</title>
<ellipse fill="none" stroke="black" cx="323.1" cy="-18" rx="27" ry="18"/>
<text text-anchor="middle" x="323.1" y="-12.57" font-family="Times New Roman,serif" font-size="14.00">20</text>
</g>
<!-- 14 -->
<g id="node4" class="node">
<title>14</title>
<ellipse fill="none" stroke="black" cx="323.1" cy="-90" rx="48.07" ry="18"/>
<text text-anchor="middle" x="323.1" y="-84.58" font-family="Times New Roman,serif" font-size="14.00">Expresion</text>
</g>
<!-- 14&#45;&#45;13 -->
<g id="edge2" class="edge">
<title>14&#45;&#45;13</title>
<path fill="none" stroke="black" d="M323.1,-71.7C323.1,-60.85 323.1,-46.92 323.1,-36.1"/>
</g>
<!-- 15 -->
<g id="node5" class="node">
<title>15</title>
<ellipse fill="none" stroke="black" cx="230.1" cy="-90" rx="27" ry="18"/>
<text text-anchor="middle" x="230.1" y="-84.58" font-family="Times New Roman,serif" font-size="14.00">+</text>
</g>
<!-- 16 -->
<g id="node6" class="node">
<title>16</title>
<ellipse fill="none" stroke="black" cx="230.1" cy="-162" rx="48.07" ry="18"/>
<text text-anchor="middle" x="230.1" y="-156.57" font-family="Times New Roman,serif" font-size="14.00">Expresion</text>
</g>
<!-- 16&#45;&#45;12 -->
<g id="edge3" class="edge">
<title>16&#45;&#45;12</title>
<path fill="none" stroke="black" d="M209.46,-145.46C194.05,-133.86 173.08,-118.08 157.69,-106.49"/>
</g>
<!-- 16&#45;&#45;14 -->
<g id="edge5" class="edge">
<title>16&#45;&#45;14</title>
<path fill="none" stroke="black" d="M250.74,-145.46C266.16,-133.86 287.12,-118.08 302.52,-106.49"/>
</g>
<!-- 16&#45;&#45;15 -->
<g id="edge4" class="edge">
<title>16&#45;&#45;15</title>
<path fill="none" stroke="black" d="M230.1,-143.7C230.1,-132.85 230.1,-118.92 230.1,-108.1"/>
</g>
<!-- 17 -->
<g id="node7" class="node">
<title>17</title>
<ellipse fill="none" stroke="black" cx="416.1" cy="-90" rx="27" ry="18"/>
<text text-anchor="middle" x="416.1" y="-84.58" font-family="Times New Roman,serif" font-size="14.00">30</text>
</g>
<!-- 18 -->
<g id="node8" class="node">
<title>18</title>
<ellipse fill="none" stroke="black" cx="416.1" cy="-162" rx="48.07" ry="18"/>
<text text-anchor="middle" x="416.1" y="-156.57" font-family="Times New Roman,serif" font-size="14.00">Expresion</text>
</g>
<!-- 18&#45;&#45;17 -->
<g id="edge6" class="edge">
<title>18&#45;&#45;17</title>
<path fill="none" stroke="black" d="M416.1,-143.7C416.1,-132.85 416.1,-118.92 416.1,-108.1"/>
</g>
<!-- 19 -->
<g id="node9" class="node">
<title>19</title>
<ellipse fill="none" stroke="black" cx="323.1" cy="-162" rx="27" ry="18"/>
<text text-anchor="middle" x="323.1" y="-156.57" font-family="Times New Roman,serif" font-size="14.00">+</text>
</g>
<!-- 20 -->
<g id="node10" class="node">
<title>20</title>
<ellipse fill="none" stroke="black" cx="323.1" cy="-234" rx="48.07" ry="18"/>
<text text-anchor="middle" x="323.1" y="-228.57" font-family="Times New Roman,serif" font-size="14.00">Expresion</text>
</g>
<!-- 20&#45;&#45;16 -->
<g id="edge7" class="edge">
<title>20&#45;&#45;16</title>
<path fill="none" stroke="black" d="M302.46,-217.46C287.05,-205.86 266.08,-190.08 250.69,-178.49"/>
</g>
<!-- 20&#45;&#45;18 -->
<g id="edge9" class="edge">
<title>20&#45;&#45;18</title>
<path fill="none" stroke="black" d="M343.74,-217.46C359.16,-205.86 380.12,-190.08 395.52,-178.49"/>
</g>
<!-- 20&#45;&#45;19 -->
<g id="edge8" class="edge">
<title>20&#45;&#45;19</title>
<path fill="none" stroke="black" d="M323.1,-215.7C323.1,-204.85 323.1,-190.92 323.1,-180.1"/>
</g>
<!-- 21 -->
<g id="node11" class="node">
<title>21</title>
<ellipse fill="none" stroke="black" cx="276.1" cy="-315.93" rx="51.62" ry="27.93"/>
<text text-anchor="middle" x="276.1" y="-318.38" font-family="Times New Roman,serif" font-size="14.00"> ToString </text>
<text text-anchor="middle" x="276.1" y="-302.63" font-family="Times New Roman,serif" font-size="14.00">51</text>
</g>
<!-- 21&#45;&#45;20 -->
<g id="edge12" class="edge">
<title>21&#45;&#45;20</title>
<path fill="none" stroke="black" d="M291.23,-289.2C298.43,-276.97 306.82,-262.69 313.19,-251.86"/>
</g>
<!-- 22 -->
<g id="node12" class="node">
<title>22</title>
<ellipse fill="none" stroke="black" cx="127.1" cy="-234" rx="58.05" ry="18"/>
<text text-anchor="middle" x="127.1" y="-228.57" font-family="Times New Roman,serif" font-size="14.00"> std::toString</text>
</g>
<!-- 21&#45;&#45;22 -->
<g id="edge10" class="edge">
<title>21&#45;&#45;22</title>
<path fill="none" stroke="black" d="M240.04,-295.58C214.02,-281.63 179.41,-263.06 155.39,-250.17"/>
</g>
<!-- 23 -->
<g id="node13" class="node">
<title>23</title>
<ellipse fill="none" stroke="black" cx="230.1" cy="-234" rx="27" ry="18"/>
<text text-anchor="middle" x="230.1" y="-228.57" font-family="Times New Roman,serif" font-size="14.00">(</text>
</g>
<!-- 21&#45;&#45;23 -->
<g id="edge11" class="edge">
<title>21&#45;&#45;23</title>
<path fill="none" stroke="black" d="M261.04,-288.76C253.91,-276.37 245.63,-261.98 239.43,-251.2"/>
</g>
<!-- 24 -->
<g id="node14" class="node">
<title>24</title>
<ellipse fill="none" stroke="black" cx="416.1" cy="-234" rx="27" ry="18"/>
<text text-anchor="middle" x="416.1" y="-228.57" font-family="Times New Roman,serif" font-size="14.00">)</text>
</g>
<!-- 21&#45;&#45;24 -->
<g id="edge13" class="edge">
<title>21&#45;&#45;24</title>
<path fill="none" stroke="black" d="M311.07,-294.97C337.96,-279.62 374.14,-258.96 396.26,-246.33"/>
</g>
<!-- 25 -->
<g id="node15" class="node">
<title>25</title>
<ellipse fill="none" stroke="black" cx="107.1" cy="-315.93" rx="27" ry="18"/>
<text text-anchor="middle" x="107.1" y="-310.51" font-family="Times New Roman,serif" font-size="14.00">var</text>
</g>
<!-- 26 -->
<g id="node16" class="node">
<title>26</title>
<ellipse fill="none" stroke="black" cx="143.1" cy="-397.86" rx="52.06" ry="18"/>
<text text-anchor="middle" x="143.1" y="-392.44" font-family="Times New Roman,serif" font-size="14.00">Asignación</text>
</g>
<!-- 26&#45;&#45;21 -->
<g id="edge17" class="edge">
<title>26&#45;&#45;21</title>
<path fill="none" stroke="black" d="M168.12,-381.83C189.04,-369.26 219.08,-351.2 242.16,-337.33"/>
</g>
<!-- 26&#45;&#45;25 -->
<g id="edge15" class="edge">
<title>26&#45;&#45;25</title>
<path fill="none" stroke="black" d="M135.47,-379.91C129.32,-366.25 120.72,-347.16 114.6,-333.58"/>
</g>
<!-- 27 -->
<g id="node17" class="node">
<title>27</title>
<ellipse fill="none" stroke="black" cx="31.1" cy="-315.93" rx="31.1" ry="18"/>
<text text-anchor="middle" x="31.1" y="-310.51" font-family="Times New Roman,serif" font-size="14.00">string</text>
</g>
<!-- 26&#45;&#45;27 -->
<g id="edge14" class="edge">
<title>26&#45;&#45;27</title>
<path fill="none" stroke="black" d="M121.24,-381.26C100.62,-366.54 70,-344.69 50.3,-330.63"/>
</g>
<!-- 28 -->
<g id="node18" class="node">
<title>28</title>
<ellipse fill="none" stroke="black" cx="179.1" cy="-315.93" rx="27" ry="18"/>
<text text-anchor="middle" x="179.1" y="-310.51" font-family="Times New Roman,serif" font-size="14.00">=</text>
</g>
<!-- 26&#45;&#45;28 -->
<g id="edge16" class="edge">
<title>26&#45;&#45;28</title>
<path fill="none" stroke="black" d="M150.74,-379.91C156.89,-366.25 165.49,-347.16 171.6,-333.58"/>
</g>
</g>
</svg>
