<?xml version="1.0" encoding="UTF-8" standalone="no"?>
<!DOCTYPE svg PUBLIC "-//W3C//DTD SVG 1.1//EN"
 "http://www.w3.org/Graphics/SVG/1.1/DTD/svg11.dtd">
<!-- Generated by graphviz version 10.0.1 (20240210.2158)
 -->
<!-- Pages: 1 -->
<svg width="1953pt" height="548pt"
 viewBox="0.00 0.00 1952.67 548.00" xmlns="http://www.w3.org/2000/svg" xmlns:xlink="http://www.w3.org/1999/xlink">
<g id="graph0" class="graph" transform="scale(1 1) rotate(0) translate(4 544)">
<polygon fill="white" stroke="none" points="-4,4 -4,-544 1948.67,-544 1948.67,4 -4,4"/>
<!-- 1 -->
<g id="node1" class="node">
<title>1</title>
<ellipse fill="none" stroke="black" cx="420.11" cy="-450" rx="39.09" ry="18"/>
<text text-anchor="middle" x="420.11" y="-444.57" font-family="Times New Roman,serif" font-size="14.00">metodo</text>
</g>
<!-- 2 -->
<g id="node2" class="node">
<title>2</title>
<ellipse fill="none" stroke="black" cx="336.11" cy="-450" rx="27" ry="18"/>
<text text-anchor="middle" x="336.11" y="-444.57" font-family="Times New Roman,serif" font-size="14.00">int</text>
</g>
<!-- 5 -->
<g id="node3" class="node">
<title>5</title>
<ellipse fill="none" stroke="black" cx="420.11" cy="-522" rx="41.08" ry="18"/>
<text text-anchor="middle" x="420.11" y="-516.58" font-family="Times New Roman,serif" font-size="14.00">Funcion</text>
</g>
<!-- 5&#45;&#45;1 -->
<g id="edge2" class="edge">
<title>5&#45;&#45;1</title>
<path fill="none" stroke="black" d="M420.11,-503.7C420.11,-492.85 420.11,-478.92 420.11,-468.1"/>
</g>
<!-- 5&#45;&#45;2 -->
<g id="edge1" class="edge">
<title>5&#45;&#45;2</title>
<path fill="none" stroke="black" d="M401.47,-505.46C386.78,-493.22 366.49,-476.32 352.43,-464.6"/>
</g>
<!-- 4 -->
<g id="node4" class="node">
<title>4</title>
<ellipse fill="none" stroke="black" cx="538.11" cy="-450" rx="60.54" ry="18"/>
<text text-anchor="middle" x="538.11" y="-444.57" font-family="Times New Roman,serif" font-size="14.00">Instrucciones</text>
</g>
<!-- 5&#45;&#45;4 -->
<g id="edge67" class="edge">
<title>5&#45;&#45;4</title>
<path fill="none" stroke="black" d="M443.71,-507C463.48,-495.27 491.67,-478.55 512.1,-466.43"/>
</g>
<!-- 9 -->
<g id="node5" class="node">
<title>9</title>
<ellipse fill="none" stroke="black" cx="187.11" cy="-378" rx="52.06" ry="18"/>
<text text-anchor="middle" x="187.11" y="-372.57" font-family="Times New Roman,serif" font-size="14.00">Asignaci칩n</text>
</g>
<!-- 4&#45;&#45;9 -->
<g id="edge3" class="edge">
<title>4&#45;&#45;9</title>
<path fill="none" stroke="black" d="M493,-437.68C484.74,-435.71 476.18,-433.74 468.11,-432 385.61,-414.21 288.77,-396.68 233.01,-386.9"/>
</g>
<!-- 57 -->
<g id="node11" class="node">
<title>57</title>
<ellipse fill="none" stroke="black" cx="476.11" cy="-378" rx="47.07" ry="18"/>
<text text-anchor="middle" x="476.11" y="-372.57" font-family="Times New Roman,serif" font-size="14.00">SWITCH</text>
</g>
<!-- 4&#45;&#45;57 -->
<g id="edge9" class="edge">
<title>4&#45;&#45;57</title>
<path fill="none" stroke="black" d="M523.42,-432.41C513.54,-421.25 500.56,-406.6 490.7,-395.47"/>
</g>
<!-- 61 -->
<g id="node58" class="node">
<title>61</title>
<ellipse fill="none" stroke="black" cx="601.11" cy="-378" rx="60.05" ry="18"/>
<text text-anchor="middle" x="601.11" y="-372.57" font-family="Times New Roman,serif" font-size="14.00">Reasignacion</text>
</g>
<!-- 4&#45;&#45;61 -->
<g id="edge56" class="edge">
<title>4&#45;&#45;61</title>
<path fill="none" stroke="black" d="M553.04,-432.41C563.08,-421.25 576.27,-406.6 586.29,-395.47"/>
</g>
<!-- 67 -->
<g id="node62" class="node">
<title>67</title>
<ellipse fill="none" stroke="black" cx="1696.11" cy="-378" rx="29.11" ry="18"/>
<text text-anchor="middle" x="1696.11" y="-372.57" font-family="Times New Roman,serif" font-size="14.00">Cout</text>
</g>
<!-- 4&#45;&#45;67 -->
<g id="edge60" class="edge">
<title>4&#45;&#45;67</title>
<path fill="none" stroke="black" d="M597.13,-445.43C807.18,-432.73 1514.06,-390.01 1666.84,-380.77"/>
</g>
<!-- 7 -->
<g id="node7" class="node">
<title>7</title>
<ellipse fill="none" stroke="black" cx="280.11" cy="-306" rx="48.07" ry="18"/>
<text text-anchor="middle" x="280.11" y="-300.57" font-family="Times New Roman,serif" font-size="14.00">Expresion</text>
</g>
<!-- 9&#45;&#45;7 -->
<g id="edge8" class="edge">
<title>9&#45;&#45;7</title>
<path fill="none" stroke="black" d="M208.22,-361.12C223.54,-349.58 244.18,-334.05 259.41,-322.58"/>
</g>
<!-- 8 -->
<g id="node8" class="node">
<title>8</title>
<ellipse fill="none" stroke="black" cx="113.11" cy="-306" rx="28.61" ry="18"/>
<text text-anchor="middle" x="113.11" y="-300.57" font-family="Times New Roman,serif" font-size="14.00">edad</text>
</g>
<!-- 9&#45;&#45;8 -->
<g id="edge6" class="edge">
<title>9&#45;&#45;8</title>
<path fill="none" stroke="black" d="M169.95,-360.76C157.31,-348.81 140.29,-332.71 128.18,-321.25"/>
</g>
<!-- 10 -->
<g id="node9" class="node">
<title>10</title>
<ellipse fill="none" stroke="black" cx="39.11" cy="-306" rx="27" ry="18"/>
<text text-anchor="middle" x="39.11" y="-300.57" font-family="Times New Roman,serif" font-size="14.00">int</text>
</g>
<!-- 9&#45;&#45;10 -->
<g id="edge5" class="edge">
<title>9&#45;&#45;10</title>
<path fill="none" stroke="black" d="M157.16,-362.83C128.61,-349.33 86.31,-329.32 60.86,-317.28"/>
</g>
<!-- 11 -->
<g id="node10" class="node">
<title>11</title>
<ellipse fill="none" stroke="black" cx="187.11" cy="-306" rx="27" ry="18"/>
<text text-anchor="middle" x="187.11" y="-300.57" font-family="Times New Roman,serif" font-size="14.00">=</text>
</g>
<!-- 9&#45;&#45;11 -->
<g id="edge7" class="edge">
<title>9&#45;&#45;11</title>
<path fill="none" stroke="black" d="M187.11,-359.7C187.11,-348.85 187.11,-334.92 187.11,-324.1"/>
</g>
<!-- 6 -->
<g id="node6" class="node">
<title>6</title>
<ellipse fill="none" stroke="black" cx="214.11" cy="-234" rx="27" ry="18"/>
<text text-anchor="middle" x="214.11" y="-228.57" font-family="Times New Roman,serif" font-size="14.00">10</text>
</g>
<!-- 7&#45;&#45;6 -->
<g id="edge4" class="edge">
<title>7&#45;&#45;6</title>
<path fill="none" stroke="black" d="M264.8,-288.76C253.69,-276.97 238.76,-261.14 227.99,-249.72"/>
</g>
<!-- 13 -->
<g id="node14" class="node">
<title>13</title>
<ellipse fill="none" stroke="black" cx="1485.11" cy="-306" rx="48.07" ry="18"/>
<text text-anchor="middle" x="1485.11" y="-300.57" font-family="Times New Roman,serif" font-size="14.00">Expresion</text>
</g>
<!-- 57&#45;&#45;13 -->
<g id="edge54" class="edge">
<title>57&#45;&#45;13</title>
<path fill="none" stroke="black" d="M510.14,-365.17C517.31,-363.1 524.9,-361.22 532.11,-360 925.08,-293.58 1034.98,-389.46 1428.11,-324 1435.45,-322.78 1443.16,-320.9 1450.47,-318.83"/>
</g>
<!-- 12 -->
<g id="node12" class="node">
<title>12</title>
<ellipse fill="none" stroke="black" cx="1706.11" cy="-162" rx="27" ry="18"/>
</g>
<!-- 14 -->
<g id="node13" class="node">
<title>14</title>
<ellipse fill="none" stroke="black" cx="1580.11" cy="-234" rx="28.61" ry="18"/>
<text text-anchor="middle" x="1580.11" y="-228.57" font-family="Times New Roman,serif" font-size="14.00">edad</text>
</g>
<!-- 14&#45;&#45;12 -->
<g id="edge11" class="edge">
<title>14&#45;&#45;12</title>
<path fill="none" stroke="black" d="M1601.2,-221.28C1624.74,-208.21 1662.57,-187.19 1685.79,-174.29"/>
</g>
<!-- 13&#45;&#45;14 -->
<g id="edge10" class="edge">
<title>13&#45;&#45;14</title>
<path fill="none" stroke="black" d="M1506.2,-289.46C1522.92,-277.14 1546.06,-260.09 1561.97,-248.37"/>
</g>
<!-- 58 -->
<g id="node15" class="node">
<title>58</title>
<ellipse fill="none" stroke="black" cx="827.11" cy="-378" rx="34.1" ry="18"/>
<text text-anchor="middle" x="827.11" y="-372.57" font-family="Times New Roman,serif" font-size="14.00">Casos</text>
</g>
<!-- 58&#45;&#45;13 -->
<g id="edge55" class="edge">
<title>58&#45;&#45;13</title>
<path fill="none" stroke="black" d="M861.33,-376.39C953.64,-374.24 1215.15,-364.72 1428.11,-324 1435.31,-322.62 1442.9,-320.7 1450.12,-318.65"/>
</g>
<!-- 24 -->
<g id="node16" class="node">
<title>24</title>
<ellipse fill="none" stroke="black" cx="630.11" cy="-306" rx="36.09" ry="18"/>
<text text-anchor="middle" x="630.11" y="-300.57" font-family="Times New Roman,serif" font-size="14.00">CASO</text>
</g>
<!-- 58&#45;&#45;24 -->
<g id="edge12" class="edge">
<title>58&#45;&#45;24</title>
<path fill="none" stroke="black" d="M799.02,-367.45C768.46,-357 718.19,-339.65 675.11,-324 669.62,-322 663.76,-319.83 658.16,-317.72"/>
</g>
<!-- 35 -->
<g id="node27" class="node">
<title>35</title>
<ellipse fill="none" stroke="black" cx="720.11" cy="-306" rx="36.09" ry="18"/>
<text text-anchor="middle" x="720.11" y="-300.57" font-family="Times New Roman,serif" font-size="14.00">CASO</text>
</g>
<!-- 58&#45;&#45;35 -->
<g id="edge23" class="edge">
<title>58&#45;&#45;35</title>
<path fill="none" stroke="black" d="M806.23,-363.34C787.5,-351.08 760.14,-333.18 741.31,-320.87"/>
</g>
<!-- 44 -->
<g id="node38" class="node">
<title>44</title>
<ellipse fill="none" stroke="black" cx="827.11" cy="-306" rx="52.56" ry="18"/>
<text text-anchor="middle" x="827.11" y="-300.57" font-family="Times New Roman,serif" font-size="14.00">DEFAULT</text>
</g>
<!-- 58&#45;&#45;44 -->
<g id="edge34" class="edge">
<title>58&#45;&#45;44</title>
<path fill="none" stroke="black" d="M827.11,-359.7C827.11,-348.85 827.11,-334.92 827.11,-324.1"/>
</g>
<!-- 55 -->
<g id="node47" class="node">
<title>55</title>
<ellipse fill="none" stroke="black" cx="1383.11" cy="-306" rx="36.09" ry="18"/>
<text text-anchor="middle" x="1383.11" y="-300.57" font-family="Times New Roman,serif" font-size="14.00">CASO</text>
</g>
<!-- 58&#45;&#45;55 -->
<g id="edge43" class="edge">
<title>58&#45;&#45;55</title>
<path fill="none" stroke="black" d="M861.4,-376.48C944.38,-374.56 1162.13,-365.63 1338.11,-324 1344.13,-322.58 1350.42,-320.56 1356.34,-318.4"/>
</g>
<!-- 16 -->
<g id="node18" class="node">
<title>16</title>
<ellipse fill="none" stroke="black" cx="686.11" cy="-234" rx="48.07" ry="18"/>
<text text-anchor="middle" x="686.11" y="-228.57" font-family="Times New Roman,serif" font-size="14.00">Expresion</text>
</g>
<!-- 24&#45;&#45;16 -->
<g id="edge21" class="edge">
<title>24&#45;&#45;16</title>
<path fill="none" stroke="black" d="M643.1,-288.76C652.02,-277.62 663.82,-262.87 672.81,-251.63"/>
</g>
<!-- 15 -->
<g id="node17" class="node">
<title>15</title>
<ellipse fill="none" stroke="black" cx="686.11" cy="-162" rx="27" ry="18"/>
<text text-anchor="middle" x="686.11" y="-156.57" font-family="Times New Roman,serif" font-size="14.00">10</text>
</g>
<!-- 16&#45;&#45;15 -->
<g id="edge13" class="edge">
<title>16&#45;&#45;15</title>
<path fill="none" stroke="black" d="M686.11,-215.7C686.11,-204.85 686.11,-190.92 686.11,-180.1"/>
</g>
<!-- 25 -->
<g id="node19" class="node">
<title>25</title>
<ellipse fill="none" stroke="black" cx="958.11" cy="-306" rx="60.54" ry="18"/>
<text text-anchor="middle" x="958.11" y="-300.57" font-family="Times New Roman,serif" font-size="14.00">Instrucciones</text>
</g>
<!-- 25&#45;&#45;16 -->
<g id="edge22" class="edge">
<title>25&#45;&#45;16</title>
<path fill="none" stroke="black" d="M913.5,-293.52C861.05,-280.02 774.85,-257.84 725.01,-245.01"/>
</g>
<!-- 21 -->
<g id="node20" class="node">
<title>21</title>
<ellipse fill="none" stroke="black" cx="542.11" cy="-234" rx="29.11" ry="18"/>
<text text-anchor="middle" x="542.11" y="-228.57" font-family="Times New Roman,serif" font-size="14.00">Cout</text>
</g>
<!-- 25&#45;&#45;21 -->
<g id="edge14" class="edge">
<title>25&#45;&#45;21</title>
<path fill="none" stroke="black" d="M913.72,-293.34C905.57,-291.41 897.11,-289.53 889.11,-288 774.54,-266.02 744.18,-271.19 629.11,-252 609.07,-248.66 586.57,-244.24 569.47,-240.75"/>
</g>
<!-- 18 -->
<g id="node22" class="node">
<title>18</title>
<ellipse fill="none" stroke="black" cx="449.11" cy="-162" rx="48.07" ry="18"/>
<text text-anchor="middle" x="449.11" y="-156.57" font-family="Times New Roman,serif" font-size="14.00">Expresion</text>
</g>
<!-- 21&#45;&#45;18 -->
<g id="edge18" class="edge">
<title>21&#45;&#45;18</title>
<path fill="none" stroke="black" d="M524.18,-219.5C508.66,-207.82 486.21,-190.93 469.91,-178.65"/>
</g>
<!-- 19 -->
<g id="node23" class="node">
<title>19</title>
<ellipse fill="none" stroke="black" cx="284.11" cy="-162" rx="27.11" ry="18"/>
<text text-anchor="middle" x="284.11" y="-156.57" font-family="Times New Roman,serif" font-size="14.00">cout</text>
</g>
<!-- 21&#45;&#45;19 -->
<g id="edge16" class="edge">
<title>21&#45;&#45;19</title>
<path fill="none" stroke="black" d="M519.94,-222.07C514.82,-219.83 509.35,-217.66 504.11,-216 424.68,-190.82 399.28,-205.99 320.11,-180 315.12,-178.36 309.92,-176.2 305.08,-173.96"/>
</g>
<!-- 20 -->
<g id="node24" class="node">
<title>20</title>
<ellipse fill="none" stroke="black" cx="356.11" cy="-162" rx="27" ry="18"/>
<text text-anchor="middle" x="356.11" y="-156.57" font-family="Times New Roman,serif" font-size="14.00">&lt;&lt;</text>
</g>
<!-- 21&#45;&#45;20 -->
<g id="edge17" class="edge">
<title>21&#45;&#45;20</title>
<path fill="none" stroke="black" d="M519.37,-222.34C514.39,-220.14 509.11,-217.91 504.11,-216 455.29,-197.3 440.74,-199.2 392.11,-180 387.23,-178.07 382.07,-175.79 377.23,-173.53"/>
</g>
<!-- 22 -->
<g id="node25" class="node">
<title>22</title>
<ellipse fill="none" stroke="black" cx="542.11" cy="-162" rx="27" ry="18"/>
<text text-anchor="middle" x="542.11" y="-156.57" font-family="Times New Roman,serif" font-size="14.00">&lt;&lt;</text>
</g>
<!-- 21&#45;&#45;22 -->
<g id="edge19" class="edge">
<title>21&#45;&#45;22</title>
<path fill="none" stroke="black" d="M542.11,-215.7C542.11,-204.85 542.11,-190.92 542.11,-180.1"/>
</g>
<!-- 23 -->
<g id="node26" class="node">
<title>23</title>
<ellipse fill="none" stroke="black" cx="614.11" cy="-162" rx="27" ry="18"/>
<text text-anchor="middle" x="614.11" y="-156.57" font-family="Times New Roman,serif" font-size="14.00">endl</text>
</g>
<!-- 21&#45;&#45;23 -->
<g id="edge20" class="edge">
<title>21&#45;&#45;23</title>
<path fill="none" stroke="black" d="M557.38,-218.15C569.77,-206.12 587.11,-189.25 599.36,-177.35"/>
</g>
<!-- 17 -->
<g id="node21" class="node">
<title>17</title>
<ellipse fill="none" stroke="black" cx="468.11" cy="-90" rx="66.03" ry="18"/>
<text text-anchor="middle" x="468.11" y="-84.58" font-family="Times New Roman,serif" font-size="14.00">Tengo 10 a침os</text>
</g>
<!-- 18&#45;&#45;17 -->
<g id="edge15" class="edge">
<title>18&#45;&#45;17</title>
<path fill="none" stroke="black" d="M453.81,-143.7C456.75,-132.85 460.53,-118.92 463.47,-108.1"/>
</g>
<!-- 27 -->
<g id="node29" class="node">
<title>27</title>
<ellipse fill="none" stroke="black" cx="1097.11" cy="-234" rx="48.07" ry="18"/>
<text text-anchor="middle" x="1097.11" y="-228.57" font-family="Times New Roman,serif" font-size="14.00">Expresion</text>
</g>
<!-- 35&#45;&#45;27 -->
<g id="edge32" class="edge">
<title>35&#45;&#45;27</title>
<path fill="none" stroke="black" d="M746.95,-293.85C752.86,-291.68 759.14,-289.59 765.11,-288 792.47,-280.73 969.03,-254.04 1052.94,-241.54"/>
</g>
<!-- 26 -->
<g id="node28" class="node">
<title>26</title>
<ellipse fill="none" stroke="black" cx="1160.11" cy="-162" rx="27" ry="18"/>
<text text-anchor="middle" x="1160.11" y="-156.57" font-family="Times New Roman,serif" font-size="14.00">25</text>
</g>
<!-- 27&#45;&#45;26 -->
<g id="edge24" class="edge">
<title>27&#45;&#45;26</title>
<path fill="none" stroke="black" d="M1112.04,-216.41C1122.52,-204.77 1136.42,-189.32 1146.58,-178.04"/>
</g>
<!-- 36 -->
<g id="node30" class="node">
<title>36</title>
<ellipse fill="none" stroke="black" cx="1097.11" cy="-306" rx="60.54" ry="18"/>
<text text-anchor="middle" x="1097.11" y="-300.57" font-family="Times New Roman,serif" font-size="14.00">Instrucciones</text>
</g>
<!-- 36&#45;&#45;27 -->
<g id="edge33" class="edge">
<title>36&#45;&#45;27</title>
<path fill="none" stroke="black" d="M1097.11,-287.7C1097.11,-276.85 1097.11,-262.92 1097.11,-252.1"/>
</g>
<!-- 32 -->
<g id="node31" class="node">
<title>32</title>
<ellipse fill="none" stroke="black" cx="939.11" cy="-234" rx="29.11" ry="18"/>
<text text-anchor="middle" x="939.11" y="-228.57" font-family="Times New Roman,serif" font-size="14.00">Cout</text>
</g>
<!-- 36&#45;&#45;32 -->
<g id="edge25" class="edge">
<title>36&#45;&#45;32</title>
<path fill="none" stroke="black" d="M1064.37,-290.5C1033.82,-276.96 989.02,-257.11 962.09,-245.18"/>
</g>
<!-- 29 -->
<g id="node33" class="node">
<title>29</title>
<ellipse fill="none" stroke="black" cx="923.11" cy="-162" rx="48.07" ry="18"/>
<text text-anchor="middle" x="923.11" y="-156.57" font-family="Times New Roman,serif" font-size="14.00">Expresion</text>
</g>
<!-- 32&#45;&#45;29 -->
<g id="edge29" class="edge">
<title>32&#45;&#45;29</title>
<path fill="none" stroke="black" d="M935.16,-215.7C932.68,-204.85 929.49,-190.92 927.02,-180.1"/>
</g>
<!-- 30 -->
<g id="node34" class="node">
<title>30</title>
<ellipse fill="none" stroke="black" cx="758.11" cy="-162" rx="27.11" ry="18"/>
<text text-anchor="middle" x="758.11" y="-156.57" font-family="Times New Roman,serif" font-size="14.00">cout</text>
</g>
<!-- 32&#45;&#45;30 -->
<g id="edge27" class="edge">
<title>32&#45;&#45;30</title>
<path fill="none" stroke="black" d="M913.96,-224.58C884.83,-214.66 835.54,-197.31 794.11,-180 789.27,-177.97 784.12,-175.65 779.29,-173.39"/>
</g>
<!-- 31 -->
<g id="node35" class="node">
<title>31</title>
<ellipse fill="none" stroke="black" cx="830.11" cy="-162" rx="27" ry="18"/>
<text text-anchor="middle" x="830.11" y="-156.57" font-family="Times New Roman,serif" font-size="14.00">&lt;&lt;</text>
</g>
<!-- 32&#45;&#45;31 -->
<g id="edge28" class="edge">
<title>32&#45;&#45;31</title>
<path fill="none" stroke="black" d="M919.37,-220.32C899.37,-207.48 868.65,-187.75 848.97,-175.11"/>
</g>
<!-- 33 -->
<g id="node36" class="node">
<title>33</title>
<ellipse fill="none" stroke="black" cx="1016.11" cy="-162" rx="27" ry="18"/>
<text text-anchor="middle" x="1016.11" y="-156.57" font-family="Times New Roman,serif" font-size="14.00">&lt;&lt;</text>
</g>
<!-- 32&#45;&#45;33 -->
<g id="edge30" class="edge">
<title>32&#45;&#45;33</title>
<path fill="none" stroke="black" d="M955.07,-218.5C968.46,-206.32 987.47,-189.04 1000.7,-177.01"/>
</g>
<!-- 34 -->
<g id="node37" class="node">
<title>34</title>
<ellipse fill="none" stroke="black" cx="1088.11" cy="-162" rx="27" ry="18"/>
<text text-anchor="middle" x="1088.11" y="-156.57" font-family="Times New Roman,serif" font-size="14.00">endl</text>
</g>
<!-- 32&#45;&#45;34 -->
<g id="edge31" class="edge">
<title>32&#45;&#45;34</title>
<path fill="none" stroke="black" d="M961.63,-222.46C984.44,-211.78 1020.74,-194.76 1052.11,-180 1056.74,-177.82 1061.7,-175.48 1066.41,-173.26"/>
</g>
<!-- 28 -->
<g id="node32" class="node">
<title>28</title>
<ellipse fill="none" stroke="black" cx="923.11" cy="-90" rx="66.03" ry="18"/>
<text text-anchor="middle" x="923.11" y="-84.58" font-family="Times New Roman,serif" font-size="14.00">Tengo 25 a침os</text>
</g>
<!-- 29&#45;&#45;28 -->
<g id="edge26" class="edge">
<title>29&#45;&#45;28</title>
<path fill="none" stroke="black" d="M923.11,-143.7C923.11,-132.85 923.11,-118.92 923.11,-108.1"/>
</g>
<!-- 45 -->
<g id="node39" class="node">
<title>45</title>
<ellipse fill="none" stroke="black" cx="434.11" cy="-234" rx="60.54" ry="18"/>
<text text-anchor="middle" x="434.11" y="-228.57" font-family="Times New Roman,serif" font-size="14.00">Instrucciones</text>
</g>
<!-- 44&#45;&#45;45 -->
<g id="edge42" class="edge">
<title>44&#45;&#45;45</title>
<path fill="none" stroke="black" d="M788.27,-293.52C780.64,-291.5 772.66,-289.55 765.11,-288 650.4,-264.47 619.15,-273.85 504.11,-252 495.88,-250.44 487.16,-248.53 478.78,-246.56"/>
</g>
<!-- 41 -->
<g id="node40" class="node">
<title>41</title>
<ellipse fill="none" stroke="black" cx="210.11" cy="-162" rx="29.11" ry="18"/>
<text text-anchor="middle" x="210.11" y="-156.57" font-family="Times New Roman,serif" font-size="14.00">Cout</text>
</g>
<!-- 45&#45;&#45;41 -->
<g id="edge35" class="edge">
<title>45&#45;&#45;41</title>
<path fill="none" stroke="black" d="M388.43,-221.93C350.42,-212.26 295.12,-197.11 248.11,-180 243.09,-178.17 237.79,-175.98 232.8,-173.79"/>
</g>
<!-- 38 -->
<g id="node42" class="node">
<title>38</title>
<ellipse fill="none" stroke="black" cx="192.11" cy="-90" rx="48.07" ry="18"/>
<text text-anchor="middle" x="192.11" y="-84.58" font-family="Times New Roman,serif" font-size="14.00">Expresion</text>
</g>
<!-- 41&#45;&#45;38 -->
<g id="edge39" class="edge">
<title>41&#45;&#45;38</title>
<path fill="none" stroke="black" d="M205.75,-144.05C202.97,-133.21 199.36,-119.18 196.55,-108.28"/>
</g>
<!-- 39 -->
<g id="node43" class="node">
<title>39</title>
<ellipse fill="none" stroke="black" cx="27.11" cy="-90" rx="27.11" ry="18"/>
<text text-anchor="middle" x="27.11" y="-84.58" font-family="Times New Roman,serif" font-size="14.00">cout</text>
</g>
<!-- 41&#45;&#45;39 -->
<g id="edge37" class="edge">
<title>41&#45;&#45;39</title>
<path fill="none" stroke="black" d="M187.36,-150.37C182.38,-148.17 177.1,-145.93 172.11,-144 124.54,-125.56 110.49,-126.93 63.11,-108 58.23,-106.05 53.08,-103.76 48.24,-101.5"/>
</g>
<!-- 40 -->
<g id="node44" class="node">
<title>40</title>
<ellipse fill="none" stroke="black" cx="99.11" cy="-90" rx="27" ry="18"/>
<text text-anchor="middle" x="99.11" y="-84.58" font-family="Times New Roman,serif" font-size="14.00">&lt;&lt;</text>
</g>
<!-- 41&#45;&#45;40 -->
<g id="edge38" class="edge">
<title>41&#45;&#45;40</title>
<path fill="none" stroke="black" d="M190.27,-148.49C169.94,-135.67 138.54,-115.87 118.41,-103.17"/>
</g>
<!-- 42 -->
<g id="node45" class="node">
<title>42</title>
<ellipse fill="none" stroke="black" cx="285.11" cy="-90" rx="27" ry="18"/>
<text text-anchor="middle" x="285.11" y="-84.58" font-family="Times New Roman,serif" font-size="14.00">&lt;&lt;</text>
</g>
<!-- 41&#45;&#45;42 -->
<g id="edge40" class="edge">
<title>41&#45;&#45;42</title>
<path fill="none" stroke="black" d="M225.65,-146.5C238.61,-134.4 256.97,-117.27 269.85,-105.25"/>
</g>
<!-- 43 -->
<g id="node46" class="node">
<title>43</title>
<ellipse fill="none" stroke="black" cx="357.11" cy="-90" rx="27" ry="18"/>
<text text-anchor="middle" x="357.11" y="-84.58" font-family="Times New Roman,serif" font-size="14.00">endl</text>
</g>
<!-- 41&#45;&#45;43 -->
<g id="edge41" class="edge">
<title>41&#45;&#45;43</title>
<path fill="none" stroke="black" d="M232.76,-150.22C260.79,-136.87 308.16,-114.31 335.64,-101.23"/>
</g>
<!-- 37 -->
<g id="node41" class="node">
<title>37</title>
<ellipse fill="none" stroke="black" cx="192.11" cy="-18" rx="70.52" ry="18"/>
<text text-anchor="middle" x="192.11" y="-12.57" font-family="Times New Roman,serif" font-size="14.00">Estoy en dafault</text>
</g>
<!-- 38&#45;&#45;37 -->
<g id="edge36" class="edge">
<title>38&#45;&#45;37</title>
<path fill="none" stroke="black" d="M192.11,-71.7C192.11,-60.85 192.11,-46.92 192.11,-36.1"/>
</g>
<!-- 47 -->
<g id="node49" class="node">
<title>47</title>
<ellipse fill="none" stroke="black" cx="1399.11" cy="-234" rx="48.07" ry="18"/>
<text text-anchor="middle" x="1399.11" y="-228.57" font-family="Times New Roman,serif" font-size="14.00">Expresion</text>
</g>
<!-- 55&#45;&#45;47 -->
<g id="edge52" class="edge">
<title>55&#45;&#45;47</title>
<path fill="none" stroke="black" d="M1387.07,-287.7C1389.55,-276.85 1392.73,-262.92 1395.2,-252.1"/>
</g>
<!-- 46 -->
<g id="node48" class="node">
<title>46</title>
<ellipse fill="none" stroke="black" cx="1634.11" cy="-162" rx="27" ry="18"/>
<text text-anchor="middle" x="1634.11" y="-156.57" font-family="Times New Roman,serif" font-size="14.00">18</text>
</g>
<!-- 47&#45;&#45;46 -->
<g id="edge44" class="edge">
<title>47&#45;&#45;46</title>
<path fill="none" stroke="black" d="M1440.18,-224.35C1480.89,-215.25 1544.73,-199.53 1598.11,-180 1603.05,-178.2 1608.22,-175.96 1613.06,-173.72"/>
</g>
<!-- 56 -->
<g id="node50" class="node">
<title>56</title>
<ellipse fill="none" stroke="black" cx="1268.11" cy="-306" rx="60.54" ry="18"/>
<text text-anchor="middle" x="1268.11" y="-300.57" font-family="Times New Roman,serif" font-size="14.00">Instrucciones</text>
</g>
<!-- 56&#45;&#45;47 -->
<g id="edge53" class="edge">
<title>56&#45;&#45;47</title>
<path fill="none" stroke="black" d="M1296.54,-289.81C1319.11,-277.75 1350.45,-261 1372.53,-249.21"/>
</g>
<!-- 52 -->
<g id="node51" class="node">
<title>52</title>
<ellipse fill="none" stroke="black" cx="1304.11" cy="-234" rx="29.11" ry="18"/>
<text text-anchor="middle" x="1304.11" y="-228.57" font-family="Times New Roman,serif" font-size="14.00">Cout</text>
</g>
<!-- 56&#45;&#45;52 -->
<g id="edge45" class="edge">
<title>56&#45;&#45;52</title>
<path fill="none" stroke="black" d="M1276.83,-288.05C1282.57,-276.89 1290.05,-262.34 1295.73,-251.31"/>
</g>
<!-- 49 -->
<g id="node53" class="node">
<title>49</title>
<ellipse fill="none" stroke="black" cx="1397.11" cy="-162" rx="48.07" ry="18"/>
<text text-anchor="middle" x="1397.11" y="-156.57" font-family="Times New Roman,serif" font-size="14.00">Expresion</text>
</g>
<!-- 52&#45;&#45;49 -->
<g id="edge49" class="edge">
<title>52&#45;&#45;49</title>
<path fill="none" stroke="black" d="M1322.04,-219.5C1337.56,-207.82 1360.01,-190.93 1376.31,-178.65"/>
</g>
<!-- 50 -->
<g id="node54" class="node">
<title>50</title>
<ellipse fill="none" stroke="black" cx="1232.11" cy="-162" rx="27.11" ry="18"/>
<text text-anchor="middle" x="1232.11" y="-156.57" font-family="Times New Roman,serif" font-size="14.00">cout</text>
</g>
<!-- 52&#45;&#45;50 -->
<g id="edge47" class="edge">
<title>52&#45;&#45;50</title>
<path fill="none" stroke="black" d="M1288.84,-218.15C1276.46,-206.12 1259.11,-189.25 1246.87,-177.35"/>
</g>
<!-- 51 -->
<g id="node55" class="node">
<title>51</title>
<ellipse fill="none" stroke="black" cx="1304.11" cy="-162" rx="27" ry="18"/>
<text text-anchor="middle" x="1304.11" y="-156.57" font-family="Times New Roman,serif" font-size="14.00">&lt;&lt;</text>
</g>
<!-- 52&#45;&#45;51 -->
<g id="edge48" class="edge">
<title>52&#45;&#45;51</title>
<path fill="none" stroke="black" d="M1304.11,-215.7C1304.11,-204.85 1304.11,-190.92 1304.11,-180.1"/>
</g>
<!-- 53 -->
<g id="node56" class="node">
<title>53</title>
<ellipse fill="none" stroke="black" cx="1490.11" cy="-162" rx="27" ry="18"/>
<text text-anchor="middle" x="1490.11" y="-156.57" font-family="Times New Roman,serif" font-size="14.00">&lt;&lt;</text>
</g>
<!-- 52&#45;&#45;53 -->
<g id="edge50" class="edge">
<title>52&#45;&#45;53</title>
<path fill="none" stroke="black" d="M1326.85,-222.34C1331.84,-220.14 1337.12,-217.91 1342.11,-216 1390.94,-197.3 1405.48,-199.2 1454.11,-180 1459,-178.07 1464.16,-175.79 1468.99,-173.53"/>
</g>
<!-- 54 -->
<g id="node57" class="node">
<title>54</title>
<ellipse fill="none" stroke="black" cx="1562.11" cy="-162" rx="27" ry="18"/>
<text text-anchor="middle" x="1562.11" y="-156.57" font-family="Times New Roman,serif" font-size="14.00">endl</text>
</g>
<!-- 52&#45;&#45;54 -->
<g id="edge51" class="edge">
<title>52&#45;&#45;54</title>
<path fill="none" stroke="black" d="M1326.29,-222.07C1331.4,-219.83 1336.88,-217.66 1342.11,-216 1421.55,-190.82 1446.94,-205.99 1526.11,-180 1531.1,-178.36 1536.3,-176.2 1541.15,-173.96"/>
</g>
<!-- 48 -->
<g id="node52" class="node">
<title>48</title>
<ellipse fill="none" stroke="black" cx="1397.11" cy="-90" rx="66.03" ry="18"/>
<text text-anchor="middle" x="1397.11" y="-84.58" font-family="Times New Roman,serif" font-size="14.00">Tengo 18 a침os</text>
</g>
<!-- 49&#45;&#45;48 -->
<g id="edge46" class="edge">
<title>49&#45;&#45;48</title>
<path fill="none" stroke="black" d="M1397.11,-143.7C1397.11,-132.85 1397.11,-118.92 1397.11,-108.1"/>
</g>
<!-- 62 -->
<g id="node61" class="node">
<title>62</title>
<ellipse fill="none" stroke="black" cx="486.11" cy="-306" rx="41.08" ry="18"/>
<text text-anchor="middle" x="486.11" y="-300.57" font-family="Times New Roman,serif" font-size="14.00">Variable</text>
</g>
<!-- 61&#45;&#45;62 -->
<g id="edge58" class="edge">
<title>61&#45;&#45;62</title>
<path fill="none" stroke="black" d="M575.3,-361.29C555.57,-349.28 528.59,-332.86 509.49,-321.23"/>
</g>
<!-- 59 -->
<g id="node59" class="node">
<title>59</title>
<ellipse fill="none" stroke="black" cx="136.11" cy="-162" rx="27" ry="18"/>
<text text-anchor="middle" x="136.11" y="-156.57" font-family="Times New Roman,serif" font-size="14.00">25</text>
</g>
<!-- 60 -->
<g id="node60" class="node">
<title>60</title>
<ellipse fill="none" stroke="black" cx="307.11" cy="-234" rx="48.07" ry="18"/>
<text text-anchor="middle" x="307.11" y="-228.57" font-family="Times New Roman,serif" font-size="14.00">Expresion</text>
</g>
<!-- 60&#45;&#45;59 -->
<g id="edge57" class="edge">
<title>60&#45;&#45;59</title>
<path fill="none" stroke="black" d="M273.85,-220.65C246.37,-210.28 206.44,-194.82 172.11,-180 167.29,-177.92 162.16,-175.57 157.32,-173.31"/>
</g>
<!-- 62&#45;&#45;60 -->
<g id="edge59" class="edge">
<title>62&#45;&#45;60</title>
<path fill="none" stroke="black" d="M456.15,-293.28C423.91,-280.67 372.79,-260.68 339.6,-247.7"/>
</g>
<!-- 64 -->
<g id="node64" class="node">
<title>64</title>
<ellipse fill="none" stroke="black" cx="1743.11" cy="-306" rx="48.07" ry="18"/>
<text text-anchor="middle" x="1743.11" y="-300.57" font-family="Times New Roman,serif" font-size="14.00">Expresion</text>
</g>
<!-- 67&#45;&#45;64 -->
<g id="edge64" class="edge">
<title>67&#45;&#45;64</title>
<path fill="none" stroke="black" d="M1706.78,-361.12C1714.25,-349.98 1724.23,-335.13 1731.83,-323.8"/>
</g>
<!-- 65 -->
<g id="node65" class="node">
<title>65</title>
<ellipse fill="none" stroke="black" cx="1578.11" cy="-306" rx="27.11" ry="18"/>
<text text-anchor="middle" x="1578.11" y="-300.57" font-family="Times New Roman,serif" font-size="14.00">cout</text>
</g>
<!-- 67&#45;&#45;65 -->
<g id="edge62" class="edge">
<title>67&#45;&#45;65</title>
<path fill="none" stroke="black" d="M1675.56,-364.81C1653.64,-351.8 1619.17,-331.36 1597.65,-318.59"/>
</g>
<!-- 66 -->
<g id="node66" class="node">
<title>66</title>
<ellipse fill="none" stroke="black" cx="1650.11" cy="-306" rx="27" ry="18"/>
<text text-anchor="middle" x="1650.11" y="-300.57" font-family="Times New Roman,serif" font-size="14.00">&lt;&lt;</text>
</g>
<!-- 67&#45;&#45;66 -->
<g id="edge63" class="edge">
<title>67&#45;&#45;66</title>
<path fill="none" stroke="black" d="M1685.44,-360.76C1677.91,-349.29 1667.86,-334.01 1660.41,-322.67"/>
</g>
<!-- 68 -->
<g id="node67" class="node">
<title>68</title>
<ellipse fill="none" stroke="black" cx="1836.11" cy="-306" rx="27" ry="18"/>
<text text-anchor="middle" x="1836.11" y="-300.57" font-family="Times New Roman,serif" font-size="14.00">&lt;&lt;</text>
</g>
<!-- 67&#45;&#45;68 -->
<g id="edge65" class="edge">
<title>67&#45;&#45;68</title>
<path fill="none" stroke="black" d="M1718.3,-365.91C1744.82,-352.65 1788.89,-330.61 1814.95,-317.58"/>
</g>
<!-- 69 -->
<g id="node68" class="node">
<title>69</title>
<ellipse fill="none" stroke="black" cx="1908.11" cy="-306" rx="27" ry="18"/>
<text text-anchor="middle" x="1908.11" y="-300.57" font-family="Times New Roman,serif" font-size="14.00">endl</text>
</g>
<!-- 67&#45;&#45;69 -->
<g id="edge66" class="edge">
<title>67&#45;&#45;69</title>
<path fill="none" stroke="black" d="M1718.77,-366.13C1723.76,-363.94 1729.07,-361.77 1734.11,-360 1793.91,-338.99 1812.53,-345.63 1872.11,-324 1877.05,-322.21 1882.23,-319.98 1887.07,-317.74"/>
</g>
<!-- 63 -->
<g id="node63" class="node">
<title>63</title>
<ellipse fill="none" stroke="black" cx="1743.11" cy="-234" rx="78.51" ry="18"/>
<text text-anchor="middle" x="1743.11" y="-228.57" font-family="Times New Roman,serif" font-size="14.00">Despues del bucle</text>
</g>
<!-- 64&#45;&#45;63 -->
<g id="edge61" class="edge">
<title>64&#45;&#45;63</title>
<path fill="none" stroke="black" d="M1743.11,-287.7C1743.11,-276.85 1743.11,-262.92 1743.11,-252.1"/>
</g>
<!-- 70 -->
<g id="node69" class="node">
<title>70</title>
<ellipse fill="none" stroke="black" cx="1837.11" cy="-450" rx="60.05" ry="18"/>
<text text-anchor="middle" x="1837.11" y="-444.57" font-family="Times New Roman,serif" font-size="14.00">LLamadaMet</text>
</g>
<!-- 71 -->
<g id="node70" class="node">
<title>71</title>
<ellipse fill="none" stroke="black" cx="1782.11" cy="-378" rx="39.09" ry="18"/>
<text text-anchor="middle" x="1782.11" y="-372.57" font-family="Times New Roman,serif" font-size="14.00">metodo</text>
</g>
<!-- 70&#45;&#45;71 -->
<g id="edge68" class="edge">
<title>70&#45;&#45;71</title>
<path fill="none" stroke="black" d="M1823.8,-432.05C1815.02,-420.89 1803.6,-406.34 1794.92,-395.31"/>
</g>
<!-- 72 -->
<g id="node71" class="node">
<title>72</title>
<ellipse fill="none" stroke="black" cx="1892.11" cy="-378" rx="52.56" ry="18"/>
<text text-anchor="middle" x="1892.11" y="-372.57" font-family="Times New Roman,serif" font-size="14.00">Parametros</text>
</g>
<!-- 70&#45;&#45;72 -->
<g id="edge69" class="edge">
<title>70&#45;&#45;72</title>
<path fill="none" stroke="black" d="M1850.43,-432.05C1859.07,-421.05 1870.3,-406.76 1878.92,-395.79"/>
</g>
<!-- 73 -->
<g id="node72" class="node">
<title>73</title>
<ellipse fill="none" stroke="black" cx="1720.11" cy="-450" rx="38.59" ry="18"/>
<text text-anchor="middle" x="1720.11" y="-444.57" font-family="Times New Roman,serif" font-size="14.00">execute</text>
</g>
<!-- 74 -->
<g id="node73" class="node">
<title>74</title>
<ellipse fill="none" stroke="black" cx="1778.11" cy="-522" rx="40.09" ry="18"/>
<text text-anchor="middle" x="1778.11" y="-516.58" font-family="Times New Roman,serif" font-size="14.00">Execute</text>
</g>
<!-- 74&#45;&#45;70 -->
<g id="edge71" class="edge">
<title>74&#45;&#45;70</title>
<path fill="none" stroke="black" d="M1791.8,-504.76C1801.19,-493.62 1813.63,-478.87 1823.09,-467.63"/>
</g>
<!-- 74&#45;&#45;73 -->
<g id="edge70" class="edge">
<title>74&#45;&#45;73</title>
<path fill="none" stroke="black" d="M1764.66,-504.76C1755.29,-493.46 1742.85,-478.44 1733.49,-467.15"/>
</g>
</g>
</svg>
